<svg width="397" height="104" viewBox="0 0 397 104" fill="none" xmlns="http://www.w3.org/2000/svg">
<path d="M40.448 78H28.784C27.872 78 27.2 77.808 26.768 77.424C26.384 76.992 26.192 76.32 26.192 75.408V40.056H15.608C14.696 40.056 14.024 39.864 13.592 39.48C13.208 39.048 13.016 38.376 13.016 37.464V28.752C13.016 27.84 13.208 27.192 13.592 26.808C14.024 26.376 14.696 26.16 15.608 26.16H53.624C54.536 26.16 55.184 26.376 55.568 26.808C56 27.192 56.216 27.84 56.216 28.752V37.464C56.216 38.376 56 39.048 55.568 39.48C55.184 39.864 54.536 40.056 53.624 40.056H43.04V75.408C43.04 76.32 42.824 76.992 42.392 77.424C42.008 77.808 41.36 78 40.448 78ZM103.906 64.392C103.906 66.6 103.57 68.616 102.898 70.44C102.274 72.216 101.122 73.752 99.4424 75.048C97.8104 76.296 95.5304 77.28 92.6024 78C89.7224 78.72 86.0504 79.08 81.5864 79.08C77.1224 79.08 73.4264 78.72 70.4984 78C67.5704 77.28 65.2664 76.296 63.5864 75.048C61.9544 73.752 60.8024 72.216 60.1304 70.44C59.5064 68.616 59.1944 66.6 59.1944 64.392V39.84C59.1944 37.632 59.5064 35.64 60.1304 33.864C60.8024 32.04 61.9544 30.48 63.5864 29.184C65.2664 27.888 67.5704 26.88 70.4984 26.16C73.4264 25.44 77.1224 25.08 81.5864 25.08C86.0504 25.08 89.7224 25.44 92.6024 26.16C95.5304 26.88 97.8104 27.888 99.4424 29.184C101.122 30.48 102.274 32.04 102.898 33.864C103.57 35.64 103.906 37.632 103.906 39.84V64.392ZM75.5384 61.8C75.5384 62.76 75.8984 63.576 76.6184 64.248C77.3384 64.872 78.9944 65.184 81.5864 65.184C84.1784 65.184 85.8344 64.872 86.5544 64.248C87.2744 63.576 87.6344 62.76 87.6344 61.8V42.432C87.6344 41.52 87.2744 40.752 86.5544 40.128C85.8344 39.456 84.1784 39.12 81.5864 39.12C78.9944 39.12 77.3384 39.456 76.6184 40.128C75.8984 40.752 75.5384 41.52 75.5384 42.432V61.8ZM154.112 64.392C154.112 66.6 153.776 68.616 153.104 70.44C152.48 72.216 151.328 73.752 149.648 75.048C148.016 76.296 145.736 77.28 142.808 78C139.928 78.72 136.256 79.08 131.792 79.08C127.328 79.08 123.632 78.72 120.704 78C117.776 77.28 115.472 76.296 113.792 75.048C112.16 73.752 111.008 72.216 110.336 70.44C109.712 68.616 109.4 66.6 109.4 64.392V39.84C109.4 37.632 109.712 35.64 110.336 33.864C111.008 32.04 112.16 30.48 113.792 29.184C115.472 27.888 117.776 26.88 120.704 26.16C123.632 25.44 127.328 25.08 131.792 25.08C136.256 25.08 139.928 25.44 142.808 26.16C145.736 26.88 148.016 27.888 149.648 29.184C151.328 30.48 152.48 32.04 153.104 33.864C153.776 35.64 154.112 37.632 154.112 39.84V64.392ZM125.744 61.8C125.744 62.76 126.104 63.576 126.824 64.248C127.544 64.872 129.2 65.184 131.792 65.184C134.384 65.184 136.04 64.872 136.76 64.248C137.48 63.576 137.84 62.76 137.84 61.8V42.432C137.84 41.52 137.48 40.752 136.76 40.128C136.04 39.456 134.384 39.12 131.792 39.12C129.2 39.12 127.544 39.456 126.824 40.128C126.104 40.752 125.744 41.52 125.744 42.432V61.8ZM199.638 78H162.99C162.078 78 161.406 77.808 160.974 77.424C160.59 76.992 160.398 76.32 160.398 75.408V28.752C160.398 27.84 160.59 27.192 160.974 26.808C161.406 26.376 162.078 26.16 162.99 26.16H174.15C175.062 26.16 175.71 26.376 176.094 26.808C176.526 27.192 176.742 27.84 176.742 28.752V64.392H186.606V52.728C186.606 51.816 186.798 51.168 187.182 50.784C187.614 50.352 188.286 50.136 189.198 50.136H199.638C200.55 50.136 201.198 50.352 201.582 50.784C202.014 51.168 202.23 51.816 202.23 52.728V75.408C202.23 76.32 202.014 76.992 201.582 77.424C201.198 77.808 200.55 78 199.638 78ZM237.821 78H210.173C209.261 78 208.589 77.808 208.157 77.424C207.773 76.992 207.581 76.32 207.581 75.408V28.752C207.581 27.84 207.773 27.192 208.157 26.808C208.589 26.376 209.261 26.16 210.173 26.16H233.141C237.845 26.16 241.325 27.072 243.581 28.896C245.837 30.672 246.965 33.432 246.965 37.176V40.632C246.965 42.648 246.605 44.304 245.885 45.6C245.213 46.848 244.157 47.784 242.717 48.408C245.789 48.696 248.069 49.752 249.557 51.576C251.045 53.4 251.789 56.064 251.789 59.568V66.192C251.789 70.224 250.637 73.2 248.333 75.12C246.077 77.04 242.573 78 237.821 78ZM223.781 38.4V46.176H229.901C230.813 46.176 231.485 45.936 231.917 45.456C232.397 44.976 232.637 44.256 232.637 43.296V41.28C232.637 40.32 232.397 39.6 231.917 39.12C231.485 38.64 230.813 38.4 229.901 38.4H223.781ZM223.781 57.264V65.76H233.141C234.053 65.76 234.725 65.52 235.157 65.04C235.637 64.56 235.877 63.84 235.877 62.88V60.072C235.877 59.112 235.637 58.416 235.157 57.984C234.725 57.504 234.053 57.264 233.141 57.264H223.781ZM292.873 78H259.465C258.553 78 257.881 77.808 257.449 77.424C257.065 76.992 256.873 76.32 256.873 75.408V28.752C256.873 27.84 257.065 27.192 257.449 26.808C257.881 26.376 258.553 26.16 259.465 26.16H292.873C293.785 26.16 294.433 26.376 294.817 26.808C295.249 27.192 295.465 27.84 295.465 28.752V37.176C295.465 38.088 295.249 38.76 294.817 39.192C294.433 39.576 293.785 39.768 292.873 39.768H273.001V45.312H287.041C287.953 45.312 288.601 45.528 288.985 45.96C289.417 46.344 289.633 46.992 289.633 47.904V55.608C289.633 56.52 289.417 57.192 288.985 57.624C288.601 58.008 287.953 58.2 287.041 58.2H273.001V64.392H292.873C293.785 64.392 294.433 64.608 294.817 65.04C295.249 65.424 295.465 66.072 295.465 66.984V75.408C295.465 76.32 295.249 76.992 294.817 77.424C294.433 77.808 293.785 78 292.873 78ZM340.342 78H303.694C302.782 78 302.11 77.808 301.678 77.424C301.294 76.992 301.102 76.32 301.102 75.408V28.752C301.102 27.84 301.294 27.192 301.678 26.808C302.11 26.376 302.782 26.16 303.694 26.16H314.854C315.766 26.16 316.414 26.376 316.798 26.808C317.23 27.192 317.446 27.84 317.446 28.752V64.392H327.31V52.728C327.31 51.816 327.502 51.168 327.886 50.784C328.318 50.352 328.99 50.136 329.902 50.136H340.342C341.254 50.136 341.902 50.352 342.286 50.784C342.718 51.168 342.934 51.816 342.934 52.728V75.408C342.934 76.32 342.718 76.992 342.286 77.424C341.902 77.808 341.254 78 340.342 78ZM367.702 78H356.038C355.126 78 354.454 77.808 354.022 77.424C353.638 76.992 353.446 76.32 353.446 75.408V40.056H342.862C341.95 40.056 341.278 39.864 340.846 39.48C340.462 39.048 340.27 38.376 340.27 37.464V28.752C340.27 27.84 340.462 27.192 340.846 26.808C341.278 26.376 341.95 26.16 342.862 26.16H380.878C381.79 26.16 382.438 26.376 382.822 26.808C383.254 27.192 383.47 27.84 383.47 28.752V37.464C383.47 38.376 383.254 39.048 382.822 39.48C382.438 39.864 381.79 40.056 380.878 40.056H370.294V75.408C370.294 76.32 370.078 76.992 369.646 77.424C369.262 77.808 368.614 78 367.702 78Z" fill="white"/>
</svg>
